<?xml version="1.0" encoding="utf-8"?>
<!-- Generator: Adobe Illustrator 16.0.0, SVG Export Plug-In . SVG Version: 6.00 Build 0)  -->
<!DOCTYPE svg PUBLIC "-//W3C//DTD SVG 1.1//EN" "http://www.w3.org/Graphics/SVG/1.1/DTD/svg11.dtd">
<svg version="1.1" id="Layer_1" xmlns="http://www.w3.org/2000/svg" xmlns:xlink="http://www.w3.org/1999/xlink" x="0px" y="0px"
	 width="599.3330078px" height="405.4072266px" viewBox="0 0 599.3330078 405.4072266"
	 enable-background="new 0 0 599.3330078 405.4072266" xml:space="preserve">
<path fill-rule="evenodd" clip-rule="evenodd" fill="#fff" d="M305.0356445,31.4199219
	c12.28125-7.7651367,24.9897461-4.9501953,37.3041992-5.1279297c2.8300781-0.0410156,4.0400391,2.0395508,4.0117188,4.730957
	c-0.0849609,8.1611328,0.2509766,16.3618164-0.4433594,24.4726563
	c-0.9365234,10.925293-12.5527344,20.5039063-23.6953125,20.3393555c-2.3955078-0.0356445-4.3520508-0.6303711-4.6362305-3.418457
	c-0.2841797-2.7895508,1.0273438-4.4321289,3.7993164-4.871582c2.9570313-0.46875,5.9404297-0.8271484,8.5537109-2.4833984
	c4.8242188-3.0571289,7.5185547-7.4179688,8.0039063-13.1123047c0.0996094-1.1601563,0.0996094-2.3310547,0.0917969-3.4970703
	c-0.09375-15.2802734,0.9453125-13.5693359-4.1445313-13.809082c-19.4677734-0.9179688-28.5224609,3.9296875-28.7280273,15.8144531
	c-0.3291016,18.9902344-0.1176758,37.9902344-0.1142578,56.9863281c0,0.4414063,0.246582,0.8828125,0.5375977,1.8564453
	c11.1259766-8.0180664,23.7314453-4.9580078,35.8457031-5.4145508c3.5449219-0.1337891,5.0253906,1.9082031,4.9609375,5.3769531
	c-0.1416016,7.6611328,0.1396484,15.3442383-0.3408203,22.980957
	c-0.7333984,11.6689453-11.3867188,21.2060547-23.0927734,21.3041992c-2.7915039,0.0234375-5.1977539-0.496582-5.4355469-3.7138672
	c-0.2241211-3.0327148,1.684082-4.1845703,4.6044922-4.7026367c11.3701172-2.0170898,15.8681641-7.5795898,15.9169922-19.2148438
	c0.0566406-13.7631836,0.0566406-13.7631836-13.8759766-13.6318359
	c-12.6538086,0.1191406-19.0864258,6.5263672-19.1044922,19.0732422
	c-0.0180664,12.6640625,0.1123047,25.3300781-0.0874023,37.9912109c-0.0512695,3.2333984,0.7407227,4.2324219,4.0566406,4.1879883
	c13.4946289-0.1791992,26.9956055,0.0625,40.4897461-0.1499023c4.3417969-0.0683594,5.3447266,1.2836914,4.8339844,5.5551758
	c-2.8623047,23.9643555-5.5214844,47.9541016-8.0214844,71.9589844c-0.3925781,3.7792969-1.953125,4.6386719-5.3886719,4.6269531
	c-26.828125-0.0957031-53.6567383-0.1318359-80.4833984,0.0351563c-3.9750977,0.0234375-5.1708984-1.5341797-5.5566406-5.1308594
	c-2.5019531-23.3339844-5.1293945-46.6542969-7.7402344-69.9765625c-0.7202148-6.4311523-0.2905273-6.9848633,5.9916992-6.9887695
	c12.8310547-0.0087891,25.6635742-0.1245117,38.4912109,0.0751953c3.581543,0.0561523,4.8959961-0.7070313,4.859375-4.6196289
	c-0.199707-21.1503906-0.0444336-42.3037109-0.1186523-63.4550781
	c-0.0439453-12.4975586-6.6367188-18.9003906-19.2597656-18.9682617c-3.3325195-0.0180664-6.6767578,0.1635742-9.9946289-0.0581055
	c-2.7392578-0.1831055-3.4609375,0.9482422-3.3764648,3.4624023c0.1455078,4.328125-0.0297852,8.6660156,0.0898438,12.9956055
	c0.2270508,8.1982422,4.7548828,13.5302734,12.6953125,15.7197266c3.2392578,0.8930664,8.043457,0.5449219,7.5454102,6.0161133
	c-0.2944336,3.2368164-4.4853516,4.2314453-10.3110352,2.7446289
	c-10.2753906-2.6235352-18.2041016-12.2460938-18.7548828-23.3227539
	c-0.3388672-6.8154297-0.0986328-13.6601563-0.1235352-20.4916992c-0.0117188-3.2441406,1.2475586-5.8530273,4.71875-5.8745117
	c8.6420898-0.0522461,17.3217773-0.9311523,25.9228516,0.6894531c2.8237305,0.5317383,5.4023438,1.7275391,7.8125,3.2075195
	c2.0708008,1.2709961,3.0571289,0.9873047,3.0439453-1.5405273c-0.0996094-18.9902344,0.097168-37.9887695-0.4501953-56.9658203
	c-0.2270508-7.875-5.9008789-13.0800781-13.8261719-13.9438477c-5.1083984-0.5571289-10.3046875-0.2939453-15.4604492-0.4472656
	c-2.1542969-0.0639648-2.9326172,0.9306641-2.8813477,3.0263672c0.1303711,5.3286133-0.125,10.6806641,0.2709961,15.9863281
	c0.5102539,6.8408203,6.4848633,12.5078125,13.9790039,13.496582c3.4257813,0.4516602,6.824707,1.0415039,5.953125,5.4018555
	c-0.8354492,4.1806641-4.4545898,3.746582-7.699707,3.1870117c-12.3427734-2.1269531-20.8452148-11.6201172-21.3237305-24.1362305
	c-0.2480469-6.4897461-0.015625-12.9960938-0.0786133-19.4941406c-0.0400391-4.1396484,1.8320313-6.1435547,6.0454102-6.0805664
	c5.8305664,0.0878906,11.6835938,0.340332,17.4921875-0.0288086c14.9995117-0.9526367,27.5761719,12.2124023,26.637207,26.628418
	C304.9619141,27.9819336,305.0356445,29.296875,305.0356445,31.4199219z"/>
<path fill-rule="evenodd" clip-rule="evenodd" fill="#fff" d="M74.7558594,391.2607422
	c-24.8623047,21.3154297-61.7026367,8.0585938-68.5610352-24.5517578
	C3.8505859,355.5625,3.8188477,344.2236328,6.8129883,333.0771484
	c3.9716797-14.7880859,12.9584961-24.8623047,27.9174805-29.0800781
	c13.8237305-3.8964844,27.6079102-4.2128906,41.0390625,1.5419922c8.9897461,3.8515625,14.9575195,10.3232422,16.1552734,20.4677734
	c0.3251953,2.7529297-0.3671875,4.1630859-3.5078125,4.6464844c-5.7387695,0.8818359-11.3964844,2.3173828-17.0668945,3.6132813
	c-2.4233398,0.5537109-3.434082,0.0849609-3.7055664-2.7265625c-0.5073242-5.2460938-3.8149414-8.3779297-8.9423828-9.3623047
	c-12.7446289-2.4453125-26.1738281,0.9628906-27.9941406,18.5732422c-0.9179688,8.8789063-1.0136719,17.6699219,1.5307617,26.234375
	c3.828125,12.8857422,22.2753906,18.9912109,33.402832,11.2744141c2.7216797-1.8876953,4.4794922-8.0068359,3.1835938-10.8828125
	c-0.3139648-0.6962891-0.7651367-1.0263672-1.4614258-1.0683594c-0.8300781-0.0498047-1.6699219,0.015625-2.4941406-0.0742188
	c-3.9047852-0.4208984-9.7314453,1.9042969-11.2871094-0.9736328c-1.9643555-3.6328125-0.5288086-9.0693359-0.7011719-13.7226563
	c-0.0830078-2.2460938,1.2055664-2.3105469,2.8515625-2.3076172c13.4912109,0.0253906,26.9829102,0.0566406,40.4741211-0.0234375
	c2.2543945-0.0136719,2.8793945,0.8466797,2.7700195,2.9433594c-0.1381836,2.6582031-0.1601563,5.3359375-0.0014648,7.9912109
	c0.2231445,3.7431641,0.4433594,7.0927734-5.1298828,6.1943359c-2.7885742-0.4501953-1.9399414,2.0957031-1.9511719,3.5214844
	c-0.0703125,8.6611328-0.1494141,17.3242188,0.0288086,25.9824219c0.059082,2.8652344-0.8198242,3.9960938-3.6479492,3.5810547
	c-0.6518555-0.0957031-1.3300781-0.0136719-1.996582-0.0136719
	C77.6816406,399.4150391,77.6816406,399.4150391,74.7558594,391.2607422z"/>
<path fill-rule="evenodd" clip-rule="evenodd" fill="#fff" d="M302.4077148,363.6064453
	c-2.8681641,10.4873047-5.9145508,21.0126953-8.5556641,31.6376953c-0.8530273,3.4316406-2.3300781,4.4824219-5.7568359,4.2431641
	c-4.6416016-0.3232422-9.3374023-0.3066406-13.9814453-0.0039063c-3.3183594,0.2167969-4.4526367-1.0800781-5.3730469-4.1445313
	c-4.2978516-14.3125-9.0009766-28.5039063-13.3525391-42.8007813c-0.918457-3.0195313-1.7470703-5.3056641-5.5375977-4.6669922
	c-2.0927734,0.3525391-3.1162109-0.6679688-2.8081055-2.8476563c0.0229492-0.1630859,0.0083008-0.3330078,0.0009766-0.4990234
	c-0.5561523-13.1171875-0.5566406-13.1171875,12.4760742-13.1171875c6.8295898,0,13.6650391,0.1650391,20.4863281-0.0732422
	c3.1557617-0.1103516,4.1787109,0.9189453,3.831543,3.9580078c-0.2255859,1.9736328-0.1435547,4-0.0209961,5.9912109
	c0.2504883,4.078125,0.4013672,7.7744141-5.65625,6.7558594c-2.5742188-0.4326172-1.753418,1.5947266-1.4101563,3.0185547
	c0.1557617,0.6455078,0.1801758,1.3212891,0.324707,1.9697266c1.6992188,7.6201172,3.4101563,15.2363281,5.4448242,24.3125
	c2.7431641-9.4287109,5.1210938-17.5595703,7.472168-25.6982422c1.5209961-5.265625,3.0014648-10.5419922,4.5019531-15.8134766
	c0.1362305-0.4794922,0.2363281-0.9775391,0.4389648-1.4277344c0-3.0742188,18.2236328-3.0742188,18.2236328,0.1064453
	c3.3251953,12.6904297,7.1049805,25.2617188,10.7285156,37.8740234c0.2539063,0.8857422-0.0058594,2.0976563,1.6923828,2.4951172
	c1.8388672-7.6757813,3.5439453-15.3779297,5.5800781-22.9912109c0.796875-2.9775391,0.5917969-4.4814453-2.9130859-3.953125
	c-3.2714844,0.4931641-4.1787109-0.8779297-4.1767578-4.1679688c0.0068359-12.3564453-0.1220703-12.3564453,12.3740234-12.3564453
	c6.6630859,0,13.3300781,0.1376953,19.9873047-0.0634766c2.9277344-0.0878906,4.3408203,0.515625,3.9736328,3.7783203
	c-0.2773438,2.4677734-0.1572266,4.9970703-0.0292969,7.4882813c0.1669922,3.2490234,0.2207031,6.1005859-4.4863281,5.3916016
	c-2.5683594-0.3876953-2.6503906,1.9716797-3.2119141,3.6494141c-4.8515625,14.4853516-9.7783203,28.9462891-14.4921875,43.4755859
	c-0.9814453,3.0253906-2.0058594,4.7314453-5.7041016,4.3886719c-4.7890625-0.4443359-9.6679688-0.3564453-14.4755859-0.0214844
	c-3.1914063,0.2226563-4.2167969-1.1396484-4.9912109-3.8916016c-2.8339844-10.0693359-5.871582-20.0830078-8.8808594-30.1035156
	C303.9018555,364.7373047,304.3095703,363.2695313,302.4077148,363.6064453z"/>
<path fill-rule="evenodd" clip-rule="evenodd" fill="#fff" d="M548.1816406,364.9082031
	c0-4.1621094-0.1962891-8.3369141,0.0615234-12.4824219c0.2060547-3.3046875-0.5546875-5.1425781-4.2597656-4.4931641
	c-4.5341797,0.7958984-6.4960938-1.0009766-5.6826172-5.6318359c0.1132813-0.6455078,0.015625-1.3291016,0.015625-1.9951172
	c0-8.1015625-0.0097656-8.2255859,7.7695313-8.8251953c2.3251953-0.1796875,2.6953125-1.2041016,2.7929688-3.1015625
	c0.2128906-4.1533203,0.6816406-8.2958984,0.8164063-12.4501953c0.0771484-2.3544922,0.9599609-3.1621094,3.3066406-3.0908203
	c4.9902344,0.1513672,9.9892578,0.15625,14.9804688,0.0332031c2.4355469-0.0595703,3.1328125,0.8935547,3.0400391,3.21875
	c-0.1601563,3.9892578,0.0996094,7.9960938-0.09375,11.9824219c-0.125,2.5654297,0.5859375,3.5410156,3.2988281,3.3935547
	c4.1494141-0.2255859,8.3232422,0.0292969,12.4814453-0.09375c2.1347656-0.0625,3.1328125,0.6513672,2.8769531,2.8349609
	c-0.0195313,0.1640625-0.0078125,0.3330078,0,0.4990234c0.6611328,13.2207031,0.6533203,13.4863281-12.546875,13.09375
	c-5.0625-0.1494141-6.5,1.1855469-6.1845703,6.2294922c0.4785156,7.6279297,0.1494141,15.3076172,0.1259766,22.9658203
	c-0.0078125,2.7041016,0.390625,5.2021484,3.7138672,5.4248047c3.0009766,0.2011719,4.1269531-2.015625,4.2490234-4.4931641
	c0.1640625-3.3535156,1.7304688-3.2695313,4.1582031-2.2861328c2.9199219,1.1835938,5.8378906,2.4863281,8.8798828,3.2285156
	c3.2910156,0.8027344,3.6669922,2.5986328,2.9833984,5.4521484c-2.2636719,9.4560547-9.1386719,15.3310547-19.0253906,16.1992188
	c-5.5410156,0.4863281-11.0136719,0.328125-16.1201172-2.0957031c-8.4072266-3.9912109-11.1064453-11.453125-11.5595703-20.0341797
	c-0.2363281-4.4824219-0.0419922-8.9873047-0.0419922-13.4824219
	C548.2060547,364.9082031,548.1933594,364.9082031,548.1816406,364.9082031z"/>
<path fill-rule="evenodd" clip-rule="evenodd" fill="#fff" d="M136.1542969,341.5117188
	c4.0224609-5.2167969,7.8686523-10.0458984,14.5996094-11.5361328c2.4941406-0.5527344,4.9453125-0.6816406,7.425293-0.2851563
	c8.7602539,1.4013672,9.9863281,3.6054688,6.5566406,11.6582031c-1.9492188,4.5771484-3.9052734,9.1503906-6.0014648,14.0605469
	c-1.0927734-0.8007813-2.0151367-1.5820313-3.0327148-2.2070313c-7.7548828-4.765625-16.9467773,0.5253906-17.7075195,10.4628906
	c-0.418457,5.4619141,0.0449219,10.9853516-0.140625,16.4736328c-0.0957031,2.8369141,1.5229492,2.9580078,3.4663086,2.7148438
	c3.1650391-0.3945313,4.3227539,0.6376953,4.3535156,4.0595703c0.112793,12.4951172,0.2480469,12.4941406-12.2475586,12.4941406
	c-7.324707,0-14.6577148-0.2001953-21.9711914,0.0878906c-3.4482422,0.1357422-4.3930664-1.0800781-4.0722656-4.2324219
	c0.2016602-1.9775391,0.1650391-4.0009766,0.0107422-5.9873047c-0.3100586-3.9960938-0.2446289-7.4824219,5.4301758-6.4355469
	c1.6894531,0.3125,2.2939453-0.6845703,2.2875977-2.3427734c-0.0395508-9.9882813-0.1000977-19.9775391,0.0249023-29.9648438
	c0.043457-3.4726563-2.3720703-2.7705078-4.0834961-2.5263672c-4.8891602,0.6982422-6.1533203-1.1904297-5.9780273-5.9970703
	c0.3857422-10.5917969,0.1147461-10.6015625,10.6616211-10.6015625c5.3271484,0,10.6782227,0.3076172,15.9741211-0.1005859
	c3.9960938-0.3085938,4.9414063,1.2070313,4.484375,4.7519531
	C135.9638672,337.8476563,136.1542969,339.6923828,136.1542969,341.5117188z"/>
<path fill-rule="evenodd" clip-rule="evenodd" fill="#fff" d="M437.4707031,348.9628906
	c0.2070313-0.2529297,0.3671875-0.5947266,0.6347656-0.7392578c9.7363281-5.2695313,13.3896484-12.015625,12.4824219-22.671875
	c-0.8808594-10.3408203-6.4638672-16.8085938-16.1386719-19.9394531c-5.2617188-1.7021484-10.6972656-2.3886719-16.234375-2.3769531
	c-13.1621094,0.0283203-26.3242188,0.0068359-39.4863281,0.0068359
	c-10.7363281-0.0009766-10.4648438,0.0097656-10.8554688,10.8613281c-0.1777344,4.9248047,0.9511719,7.0527344,6.15625,6.21875
	c1.8632813-0.2988281,4.4023438-1.0126953,4.3798828,2.7519531c-0.1162109,18.8261719-0.0771484,37.6533203-0.0185547,56.4804688
	c0.0068359,2.1064453-0.6171875,2.7871094-2.8046875,2.9169922c-7.5976563,0.4511719-7.5908203,0.5566406-7.5908203,8.4189453
	c0,1.6660156,0.1611328,3.3515625-0.0361328,4.9941406c-0.3417969,2.8623047,0.7949219,3.6171875,3.59375,3.5839844
	c12.328125-0.1435547,24.6582031-0.1503906,36.9863281-0.0292969c7.8554688,0.0771484,15.6347656-0.2958984,23.3222656-2.0556641
	c12.6435547-2.8935547,21.4912109-12.2509766,22.3232422-23.7207031
	C455.1201172,360.7705078,450.4658203,353.8916016,437.4707031,348.9628906z M411.9794922,321.5693359
	c1.1630859,0,2.3251953-0.0126953,3.4873047,0.0019531c7.2734375,0.0947266,10.4199219,3.0332031,10.3691406,9.6777344
	c-0.0507813,6.8183594-3.0693359,9.7998047-10.1308594,9.9873047c-1.1621094,0.03125-2.3242188,0.0087891-3.4863281,0.0087891
	C402.0605469,341.25,402.0605469,341.25,402.0605469,331.2773438
	C402.0605469,321.5683594,402.0605469,321.5683594,411.9794922,321.5693359z M419.7832031,380.6601563
	c-4.7910156,0.9326172-9.6230469,0.3232422-14.4228516,0.625c-2.6943359,0.1689453-3.5185547-0.8769531-3.3369141-3.4335938
	c0.1777344-2.4814453,0.0390625-4.9853516,0.0390625-7.4794922c0-10.96875,0-10.9726563,11.0996094-10.9619141
	c1.828125,0.0009766,3.6621094-0.0273438,5.484375,0.09375c6.8232422,0.4550781,10.1152344,3.5556641,10.3447266,9.6572266
	C429.2353516,375.6611328,426.1708984,379.4160156,419.7832031,380.6601563z"/>
<path fill-rule="evenodd" clip-rule="evenodd" fill="#fff" d="M241.0473633,358.8652344
	c-1.2055664-16.3554688-10.3413086-26.1757813-26.6049805-28.7734375
	c-6.3295898-1.0117188-12.6132813-0.8740234-18.8764648,0.3271484
	c-13.0546875,2.5039063-20.8198242,10.2226563-23.7124023,23.140625
	c-1.1450195,5.1132813-1.1669922,10.2460938-0.9550781,15.3994141
	c0.7739258,18.8271484,10.9526367,29.8486328,29.5883789,32.1582031
	c21.6572266,2.6835938,36.3085938-6.7050781,40.0595703-25.8232422c0.6367188-3.2460938,0.6513672-6.6132813,0.8793945-9.1132813
	C241.2739258,363.1875,241.206543,361.0234375,241.0473633,358.8652344z M216.4584961,376.7958984
	c-1.4057617,4.5683594-4.362793,7.3730469-9.2475586,7.7431641c-5.2426758,0.3974609-9.2290039-1.7998047-11.0161133-6.7207031
	c-3.0463867-8.3925781-3.0097656-16.9980469,0.1337891-25.3427734c1.6088867-4.2695313,5.3505859-6.0322266,9.9458008-6.0986328
	c4.53125-0.0654297,7.6621094,2.0371094,9.484375,5.9716797c1.9169922,4.140625,2.2382813,8.6347656,2.1660156,13.5205078
	C218.0791016,369.3476563,217.5908203,373.1181641,216.4584961,376.7958984z"/>
<path fill-rule="evenodd" clip-rule="evenodd" fill="#fff" d="M533.0117188,365.2958984
	c0-1.9980469,0.1103516-4.0019531-0.0175781-5.9912109c-1.0703125-16.5751953-10.3183594-26.6152344-26.7314453-29.2246094
	c-6.3300781-1.0068359-12.6259766-0.9208984-18.8730469,0.3681641
	c-12.8183594,2.6464844-20.9736328,10.0722656-23.6601563,23.1796875
	c-1.0839844,5.2851563-1.2177734,10.5732422-0.8916016,15.8984375
	c1.1552734,18.8164063,11.0273438,29.3300781,29.5947266,31.6005859
	c22.1103516,2.703125,36.7568359-7.0429688,40.2001953-26.8701172
	C533.1425781,371.3212891,533.1162109,365.2988281,533.0117188,365.2958984z M508.1396484,377.3134766
	c-1.3925781,4.4013672-4.4462891,6.8974609-9.0898438,7.2236328c-4.7636719,0.3349609-8.4296875-1.4882813-10.5976563-5.859375
	c-2.1240234-4.2832031-2.4091797-8.9150391-2.4101563-14.2890625c-0.1357422-2.9853516,0.3486328-6.6044922,1.4677734-10.1015625
	c1.7158203-5.3671875,5.2363281-7.8876953,10.703125-7.8798828c5.1357422,0.0078125,8.5839844,2.4277344,10.1357422,7.8535156
	C510.5390625,361.9140625,510.5585938,369.6640625,508.1396484,377.3134766z"/>
</svg>
